<?xml version="1.0" encoding="UTF-8" standalone="no"?>
<svg
   viewBox="0 0 77.655 100.00001"
   width="77.655319"
   height="51.776951"
   version="1.1"
   id="svg6"
   sodipodi:docname="logo.svg"
   inkscape:version="1.3 (0e150ed6c4, 2023-07-21)"
   inkscape:export-filename="logo.svg"
   inkscape:export-xdpi="96"
   inkscape:export-ydpi="96"
   xmlns:inkscape="http://www.inkscape.org/namespaces/inkscape"
   xmlns:sodipodi="http://sodipodi.sourceforge.net/DTD/sodipodi-0.dtd"
   xmlns="http://www.w3.org/2000/svg"
   xmlns:svg="http://www.w3.org/2000/svg">
  <defs
     id="defs6" />
  <sodipodi:namedview
     id="namedview6"
     pagecolor="#505050"
     bordercolor="#ffffff"
     borderopacity="1"
     inkscape:showpageshadow="0"
     inkscape:pageopacity="0"
     inkscape:pagecheckerboard="1"
     inkscape:deskcolor="#505050"
     inkscape:zoom="10.859675"
     inkscape:cx="53.638807"
     inkscape:cy="34.347253"
     inkscape:window-width="3440"
     inkscape:window-height="1412"
     inkscape:window-x="0"
     inkscape:window-y="0"
     inkscape:window-maximized="1"
     inkscape:current-layer="svg6" />
  <g
     transform="matrix(1.3049721,0,0,1.3049721,-44.684215,-61.855678)"
     id="g6">
    <g
       id="g5">
      <g
         id="g4">
        <path
           style="fill:#ffffff"
           d="M 117.64,124.03 H 10.36 c -2.74,0 -3.83,-1.71 -3.83,-3.83 V 51.23 c 0,-2.12 1.71,-3.83 3.83,-3.83 h 107.27 c 2.12,0 3.83,1.71 3.83,3.83 v 68.96 c 0.01,2.12 -1.71,3.84 -3.82,3.84 z"
           id="path1" />
        <g
           id="g2">
          <path
             style="fill:#2e8555"
             d="m 117.47,51.4 v 68.62 H 10.53 V 51.4 h 106.94 m 0.17,-4 H 10.36 c -2.12,0 -3.83,1.71 -3.83,3.83 v 68.96 c 0,2.12 1.09,3.83 3.83,3.83 h 107.27 c 2.12,0 3.83,-1.71 3.83,-3.83 V 51.23 c 0.01,-2.11 -1.71,-3.83 -3.82,-3.83 z"
             id="path2" />
        </g>
        <g
           id="g3">
          <path
             style="fill:#2e8555;stroke:#2e8555;stroke-width:0.5;stroke-miterlimit:10"
             d="m 87.99,78.43 29.16,-26.18 c 0.59,-0.49 1.73,-0.75 1.73,-0.75 0,0 -1.34,-1.45 -3.09,-0.09 L 70,87.75 c -1.76,1.4 -3.87,2.12 -6,2.19 -2.13,-0.07 -4.24,-0.79 -6,-2.19 L 12.21,51.42 c -1.75,-1.37 -3.09,0.09 -3.09,0.09 0,0 1.14,0.27 1.73,0.75 l 28.82,25.87 -29.57,41.4 c -0.51,0.57 0.88,1.48 1.52,0.86 L 43.91,81.94 55.77,92.59 c 2.34,2.1 5.27,3.19 8.23,3.26 2.95,-0.07 5.88,-1.15 8.23,-3.26 L 84.02,82 l 31.66,38.39 c 0.64,0.62 2.03,-0.3 1.52,-0.86 z"
             id="path3" />
        </g>
      </g>
    </g>
  </g>
</svg>
